<svg width="32" height="32" viewBox="0 0 32 32" fill="none" xmlns="http://www.w3.org/2000/svg">
<g clip-path="url(#clip0_107_1227)">
<path d="M23.2917 5.92599C23.2917 5.68399 23.0987 5.48599 22.8567 5.48599H11.4067C11.1667 5.48599 10.9727 5.68399 10.9727 5.92599V8.82499C11.2327 9.07699 11.4557 9.38299 11.6027 9.77299L11.7247 9.68599C11.7607 9.65099 11.8017 9.62599 11.8407 9.59699V6.36699H22.4237V14.043H11.8407V13.216L10.9737 13.81V14.485C10.9737 14.728 11.1677 14.926 11.4077 14.926C11.4077 14.926 21.4917 14.926 22.4147 14.926C23.3397 14.926 23.2927 14.397 23.2927 14.397V5.92599H23.2917Z" fill="#010002"/>
<path d="M6.81147 8.222C7.8227 8.222 8.64247 7.3888 8.64247 6.361C8.64247 5.3332 7.8227 4.5 6.81147 4.5C5.80024 4.5 4.98047 5.3332 4.98047 6.361C4.98047 7.3888 5.80024 8.222 6.81147 8.222Z" fill="#010002"/>
<path d="M30.3271 24.698L28.5231 23.038L28.2571 22.793L27.0371 21.673C25.5781 20.328 23.9541 20.854 22.4561 22.154L22.4411 22.167L22.3541 22.268C22.1661 22.234 21.7971 22.134 21.5711 21.829C21.3441 21.52 21.3051 21.066 21.4531 20.475C21.5151 20.227 21.5571 20.005 21.5791 19.809H24.2911C25.2491 19.809 26.0221 19.014 26.0221 18.034V1.771C26.0221 0.791 25.2491 0 24.2911 0H1.77111C0.813109 0 0.0371094 0.791 0.0371094 1.771V18.033C0.0371094 19.013 0.813109 19.808 1.77111 19.808H10.4121C10.4121 19.808 10.7871 23.357 7.79211 23.357V25.132H10.4121H15.6481H18.2701V23.357C15.1591 23.357 15.6481 19.808 15.6481 19.808H21.0311C21.0111 19.953 20.9811 20.121 20.9271 20.337C20.7371 21.097 20.8061 21.709 21.1361 22.157C21.3681 22.473 21.6851 22.641 21.9491 22.732L21.7531 22.958L21.7291 22.988C20.6661 24.621 20.1311 26.095 21.5591 27.41L22.9761 28.714L23.2591 28.974L25.0501 30.623C26.6571 32.101 29.1491 31.976 30.6031 30.34C32.0581 28.709 31.9341 26.177 30.3271 24.698ZM4.45311 15.596H3.91211V11.013H4.45411L4.45311 15.596ZM13.1471 18.705C12.5661 18.705 12.0951 18.227 12.0951 17.637C12.0951 17.045 12.5671 16.568 13.1471 16.568C13.7291 16.568 14.1991 17.046 14.1991 17.637C14.1991 18.228 13.7281 18.705 13.1471 18.705ZM9.24811 15.596L9.24711 10.992H9.76811V12.433C9.76811 12.435 9.76811 12.439 9.76811 12.441C9.76811 12.889 10.1271 13.255 10.5671 13.255C10.6981 13.255 10.8151 13.215 10.9251 13.16L10.9281 13.164L12.3101 12.222L13.0381 11.727L13.5591 11.373C13.5591 11.369 13.5601 11.369 13.5621 11.369C13.8261 11.101 13.8751 10.7 13.7101 10.387L16.5401 8.435L15.7531 10.93H16.5161L16.8651 9.763H18.1441L18.5101 10.93H19.3091L19.2231 10.66C19.3781 10.858 19.6231 10.998 19.9521 10.998C20.3371 10.998 20.6431 10.832 20.8171 10.601H20.8351L20.8891 10.93H21.5561C21.5191 10.747 21.5081 10.484 21.5081 10.216V9.147C21.5081 8.496 21.2371 7.89 20.3001 7.89C19.8381 7.89 19.4601 8.018 19.2431 8.152L19.3881 8.64C19.5851 8.512 19.8871 8.421 20.1751 8.421C20.6911 8.421 20.7691 8.743 20.7691 8.938V8.988C19.7051 8.981 19.0581 9.356 19.0371 10.078L17.9941 6.813H17.0511L16.7101 7.899L13.4881 10.123C13.3541 10.022 13.1991 9.969 13.0391 9.963C12.8171 9.954 12.5901 10.031 12.4201 10.206C12.4201 10.206 12.4171 10.21 12.4151 10.21L12.3111 10.284L11.3691 10.937V10.66C11.1941 8.546 8.78211 8.578 8.78211 8.578H7.74011L6.86111 10.047L5.97911 8.578H4.97611C2.43411 8.578 2.41611 10.409 2.41611 11.101H2.41511V15.595H1.89411V1.886H24.1691V15.596H9.24811ZM17.4331 7.647C17.4531 7.567 17.4731 7.487 17.4911 7.413H17.5031C17.5641 7.651 17.6291 7.932 17.7081 8.183L18.0251 9.197H16.9861L17.2981 8.183C17.3261 8.079 17.3541 7.965 17.3821 7.852L17.5481 7.741L17.4331 7.647ZM19.7671 10.031C19.7671 9.581 20.2661 9.469 20.7881 9.476V9.885C20.7881 9.94 20.7881 9.994 20.7701 10.049C20.6981 10.264 20.4871 10.458 20.1871 10.458C19.9531 10.459 19.7671 10.325 19.7671 10.031ZM21.9251 27C20.6991 25.875 21.2691 24.713 22.1741 23.31L22.8261 22.563C24.1151 21.456 25.4201 20.932 26.6731 22.084L27.9081 23.221C27.6051 24.244 27.0631 25.201 26.2951 26.063C25.2641 27.222 24.0661 27.948 23.3531 28.314L21.9251 27ZM30.2001 29.971C28.9461 31.377 26.8011 31.487 25.4171 30.213L23.9211 28.836C25.0981 28.174 26.0971 27.386 26.8931 26.494C27.8241 25.448 28.2961 24.457 28.5331 23.794L29.9621 25.108C31.3451 26.381 31.4531 28.562 30.2001 29.971Z" fill="#010002"/>
<path d="M24.2209 23.229C23.8519 22.888 23.2779 22.918 22.9429 23.293C22.6079 23.67 22.6359 24.252 23.0069 24.591L24.2909 25.776C24.6609 26.116 25.2349 26.087 25.5699 25.712C25.9049 25.335 25.8759 24.751 25.5069 24.411L24.2209 23.229ZM25.1659 25.339C25.0329 25.49 24.8039 25.499 24.6559 25.364L23.3719 24.183C23.2249 24.046 23.2139 23.812 23.3469 23.663C23.4809 23.515 23.7089 23.501 23.8559 23.639L25.1409 24.821C25.2879 24.957 25.2989 25.188 25.1659 25.339Z" fill="#010002"/>
</g>
<defs>
<clipPath id="clip0_107_1227">
<rect width="31.654" height="31.654" fill="white"/>
</clipPath>
</defs>
</svg>
