<svg width="29" height="28" viewBox="0 0 29 28" fill="none" xmlns="http://www.w3.org/2000/svg">
<path d="M4.83014 5.22825C5.23779 5.44969 8.74478 7.07509 8.74478 7.07509C8.74478 7.07509 8.74381 8.84174 8.74381 9.31983C8.74381 15.4421 6.13747 16.0166 6.83896 16.4898C6.99345 16.594 8.88251 16.6615 11.2863 16.6926C12.1364 17.2363 13.2633 17.5689 14.5001 17.5733C15.7371 17.5689 16.8639 17.2363 17.7139 16.6926C20.1177 16.6615 22.0069 16.594 22.1612 16.4898C22.8629 16.0166 20.2565 15.4421 20.2565 9.31983C20.2565 8.84174 20.2555 7.07515 20.2555 7.07515C20.2555 7.07515 21.8265 6.34698 22.9878 5.79899V8.38576C22.7864 8.50041 22.6449 8.70305 22.6449 8.94463C22.6449 9.15845 22.7572 9.33968 22.9211 9.45945C22.9211 9.45945 22.6299 11.0404 22.5357 11.5053C22.4415 11.9702 24.1968 11.877 24.1177 11.5053C24.0387 11.1336 23.7323 9.45945 23.7323 9.45945C23.8962 9.33968 24.0087 9.15845 24.0087 8.94463C24.0087 8.70311 23.8677 8.50041 23.6664 8.38576V5.47663C23.9126 5.35855 24.0946 5.26928 24.17 5.22825C24.5776 5.00669 24.6379 4.66926 24.0578 4.39497C21.709 3.28479 15.7202 0.454931 15.1281 0.182217C14.881 0.0685569 14.6759 0.015597 14.5002 0C14.3246 0.015597 14.1194 0.0685569 13.8724 0.182217C13.2803 0.454931 7.29146 3.28479 4.94243 4.39497C4.36228 4.66926 4.42255 5.00675 4.83014 5.22825Z" fill="black"/>
<path d="M21.2906 19.9667C20.3451 19.6375 18.6993 18.6886 18.4174 18.5422C18.3443 18.5012 18.2598 18.4772 18.169 18.4772C17.9712 18.4772 17.8011 18.5894 17.7216 18.7516C16.9448 20.007 15.5074 23.6486 14.4994 23.7423C13.4915 23.6486 12.054 20.007 11.2772 18.7516C11.1979 18.5894 11.0277 18.4772 10.8298 18.4772C10.7392 18.4772 10.6545 18.5012 10.5814 18.5422C10.2995 18.6886 8.65373 19.6375 7.7083 19.9667C4.53476 21.0715 3.10742 22.1983 3.10742 22.9666C3.10742 23.7341 3.10742 28 3.10742 28H14.4994H25.8914C25.8914 28 25.8914 23.7341 25.8914 22.9666C25.8914 22.1983 24.4641 21.0716 21.2906 19.9667Z" fill="black"/>
</svg>
