<svg width="43" height="42" viewBox="0 0 43 42" fill="none" xmlns="http://www.w3.org/2000/svg">
<g clip-path="url(#clip0_697_971)">
<path d="M23.8894 2.30219H0.898438V39.6979H23.8894V2.30219Z" fill="#D1D3D3"/>
<path d="M18.1012 6.78802H6.6875V8.14947H18.1012V6.78802Z" fill="#333E48"/>
<path d="M16.2121 9.39447H8.57031V10.7559H16.2121V9.39447Z" fill="#333E48"/>
<path d="M21.201 15.8305H3.59375V16.9444H21.201V15.8305Z" fill="#5C6670"/>
<path d="M21.201 18.9394H3.59375V20.0533H21.201V18.9394Z" fill="#5C6670"/>
<path d="M13.7811 24.288H4.32812V25.4019H13.7811V24.288Z" fill="#5C6670"/>
<path d="M13.7811 27.2583H4.32812V28.3722H13.7811V27.2583Z" fill="#5C6670"/>
<path d="M13.7811 30.2289H4.32812V31.3429H13.7811V30.2289Z" fill="#5C6670"/>
<path d="M13.7811 33.1992H4.32812V34.3131H13.7811V33.1992Z" fill="#5C6670"/>
<path d="M20.4589 24.288H16.6953V25.4019H20.4589V24.288Z" fill="#333E48"/>
<path d="M20.4589 27.2582H16.6953V28.3721H20.4589V27.2582Z" fill="#333E48"/>
<path d="M20.4589 30.2285H16.6953V31.3424H20.4589V30.2285Z" fill="#333E48"/>
<path d="M20.4589 33.1992H16.6953V34.3131H20.4589V33.1992Z" fill="#333E48"/>
<path d="M25.5814 37.2855L42.8672 19.9877L34.1848 11.2993L16.899 28.5971L25.5814 37.2855Z" fill="#006132"/>
<path d="M19.7066 28.5975L25.5781 34.4731L40.053 19.9881L34.1815 14.1126L19.7066 28.5975Z" fill="#00783E"/>
<path d="M31.4444 22.7267C30.2846 21.5661 28.6438 21.3265 27.7794 22.1915C26.915 23.0565 27.1544 24.6985 28.3142 25.859C29.4739 27.0196 31.1148 27.2592 31.9792 26.3942C32.8435 25.5292 32.6041 23.8872 31.4444 22.7267Z" fill="#006132"/>
<path d="M27.2628 21.1553C29.7508 21.1553 31.7678 19.137 31.7678 16.6472C31.7678 14.1574 29.7508 12.1391 27.2628 12.1391C24.7748 12.1391 22.7578 14.1574 22.7578 16.6472C22.7578 19.137 24.7748 21.1553 27.2628 21.1553Z" fill="#D9A460"/>
<path d="M27.2609 19.8635C29.0359 19.8635 30.4749 18.4236 30.4749 16.6473C30.4749 14.871 29.0359 13.4311 27.2609 13.4311C25.4858 13.4311 24.0469 14.871 24.0469 16.6473C24.0469 18.4236 25.4858 19.8635 27.2609 19.8635Z" fill="#FEDD3D"/>
<path d="M31.723 10.3384C33.6411 10.3384 35.196 8.78243 35.196 6.86302C35.196 4.94362 33.6411 3.38763 31.723 3.38763C29.8049 3.38763 28.25 4.94362 28.25 6.86302C28.25 8.78243 29.8049 10.3384 31.723 10.3384Z" fill="#5C6670"/>
<path d="M31.7199 9.3426C33.0883 9.3426 34.1976 8.23251 34.1976 6.86316C34.1976 5.49381 33.0883 4.38373 31.7199 4.38373C30.3515 4.38373 29.2422 5.49381 29.2422 6.86316C29.2422 8.23251 30.3515 9.3426 31.7199 9.3426Z" fill="#D1D3D3"/>
</g>
<defs>
<clipPath id="clip0_697_971">
<rect width="41.9709" height="42" fill="#Fff8f0" transform="translate(0.898438)"/>
</clipPath>
</defs>
</svg>
